<svg id="Capa_1" enable-background="new 0 0 512 512" height="512" viewBox="0 0 512 512" width="512" xmlns="http://www.w3.org/2000/svg"><g><path d="m0 323.125v107.21c0 2.761 2.239 5 5 5h502c2.761 0 5-2.239 5-5v-107.21c0-2.761-2.239-5-5-5h-502c-2.761 0-5 2.239-5 5z" fill="#80b6fc"/><path d="m78.333 211.981v127.296c0 1.255 1.018 2.273 2.273 2.273h160.762c1.255 0 2.273-1.018 2.273-2.273v-103.867c0-1.141-.845-2.104-1.976-2.253l-160.763-21.157c-1.361-.179-2.569-1.392-2.569-.019z" fill="#ffeed2"/><path d="m112.27 281.161c-3.698 0-6.696-2.998-6.696-6.696v-57.872c0-3.698 2.998-6.696 6.696-6.696s6.696 2.998 6.696 6.696v57.872c0 3.698-2.998 6.696-6.696 6.696z" fill="#f4daa7"/><path d="m151.138 321.893c-3.698 0-6.696-2.998-6.696-6.696v-98.604c0-3.698 2.998-6.696 6.696-6.696s6.696 2.998 6.696 6.696v98.604c0 3.698-2.998 6.696-6.696 6.696z" fill="#f4daa7"/><path d="m66.196 354.678c126.946 26.204 262.902 26.274 389.896.21 1.475-.303 2.521-1.658 2.398-3.159-2.9-35.36-63.112-64.342-86.038-64.782-2.38-11.018-4.759-19.382-6.026-23.571-.586-1.937-1.979-3.526-3.825-4.354-9.78-4.384-43.339-17.445-84.354-11.336-1.965.293-3.903-.695-4.839-2.447-4.434-8.303-8.324-15.549-10.228-19.09-.818-1.523-2.132-2.708-3.732-3.363-14.375-5.885-92.258-34.049-179.423-12.822-1.905.464-2.315 2.986-.656 4.03 34.096 21.458 140.802 58.579 140.802 58.579s-145.946 35.711-155.193 80.237c-.177.852.365 1.692 1.218 1.868z" fill="#acd980"/><g fill="#8cc951"><path d="m222.326 220.717c1.607.657 2.931 1.839 3.753 3.369 1.904 3.542 5.798 10.794 10.233 19.1.933 1.747 2.865 2.734 4.824 2.442 11.279-1.681 21.99-1.906 31.803-1.266-4.234-7.926-7.922-14.794-9.759-18.212-.825-1.534-2.151-2.716-3.763-3.376-10.663-4.362-54.13-20.546-111.173-20.213 38.275 4.451 65.891 14.804 74.082 18.156z"/><path d="m372.451 286.948c-2.379-11.014-4.759-19.38-6.026-23.571-.587-1.939-1.976-3.525-3.825-4.354-8.825-3.955-36.987-14.957-72.507-12.601 17.253 3.02 29.989 8.112 35.41 10.542 1.847.828 3.237 2.414 3.823 4.351 1.267 4.19 3.647 12.556 6.027 23.573 18.414.353 57.635 24.423 76.281 40.76 5.133 4.497 3.109 12.939-3.501 14.635-104.153 26.727-199.009 31.405-294.983 22.838 113.117 17.388 231.481 14.644 342.942-8.232 1.475-.303 2.521-1.658 2.398-3.159-2.898-35.361-63.112-64.342-86.039-64.782z"/></g><path d="m213.207 236.125c-3.698 0-6.696-2.998-6.696-6.696v-139.037c0-3.698 2.998-6.696 6.696-6.696s6.696 2.998 6.696 6.696v139.037c0 3.698-2.998 6.696-6.696 6.696z" fill="#8c818f"/><path d="m261.264 319.641c-1.015 0-2.004.107-2.959.307-1.425-11.497-11.222-20.398-23.105-20.398s-21.68 8.901-23.105 20.398c-.955-.199-1.944-.307-2.959-.307-7.963 0-14.419 6.456-14.419 14.419s6.456 14.419 14.419 14.419h52.128c7.963 0 14.419-6.456 14.419-14.419s-6.456-14.419-14.419-14.419z" fill="#68b181"/><path d="m341.09 304.177c-3.698 0-6.696-2.998-6.696-6.696v-47.037c0-3.698 2.998-6.696 6.696-6.696s6.696 2.998 6.696 6.696v47.037c0 3.698-2.998 6.696-6.696 6.696z" fill="#c7865b"/><g fill="#68b181"><path d="m335.981 170.624-24.748 89.854c-1.242 4.51 1.372 9.237 5.109 9.237h49.497c3.737 0 6.351-4.727 5.109-9.237l-24.748-89.854c-1.701-6.17-8.52-6.17-10.219 0z"/><g><path d="m233.23 109.74c-.612 0-1.233-.073-1.854-.226-6.619-1.63-12.611-5.872-18.166-12.895-5.555 7.023-11.547 11.266-18.167 12.895-4.144 1.019-8.329-1.512-9.35-5.655-1.02-4.143 1.512-8.329 5.655-9.35 4.433-1.091 9.04-5.547 13.696-13.244 1.743-2.881 4.796-4.601 8.165-4.601 3.37.001 6.423 1.721 8.165 4.603 4.655 7.695 9.264 12.151 13.696 13.242 4.143 1.02 6.675 5.206 5.654 9.35-.865 3.523-4.022 5.881-7.494 5.881z"/><path d="m238.438 146.02c-.612 0-1.232-.073-1.853-.226-8.517-2.097-16.213-7.883-23.375-17.612-7.162 9.729-14.857 15.515-23.375 17.612-4.146 1.019-8.329-1.512-9.35-5.655-1.02-4.143 1.512-8.329 5.655-9.35 6.209-1.528 12.261-7.286 18.5-17.602 1.83-3.024 5.034-4.828 8.57-4.828s6.74 1.805 8.568 4.828c6.239 10.316 12.291 16.073 18.501 17.602 4.143 1.02 6.676 5.206 5.655 9.35-.867 3.522-4.023 5.88-7.496 5.881z"/><path d="m243.646 182.299c-.612 0-1.232-.073-1.853-.226-10.407-2.563-19.805-9.925-28.583-22.433-8.779 12.508-18.177 19.871-28.583 22.433-4.141 1.019-8.329-1.512-9.35-5.655-1.02-4.143 1.512-8.329 5.655-9.35 7.923-1.951 15.546-9.134 23.305-21.96 1.913-3.165 5.267-5.056 8.971-5.056s7.059 1.89 8.974 5.056c7.758 12.826 15.381 20.009 23.304 21.96 4.143 1.02 6.676 5.206 5.655 9.35-.866 3.523-4.022 5.881-7.495 5.881z"/></g></g></g></svg>